<?xml version="1.0" standalone="no"?>
<!DOCTYPE svg PUBLIC "-//W3C//DTD SVG 20010904//EN"
 "http://www.w3.org/TR/2001/REC-SVG-20010904/DTD/svg10.dtd">
<svg version="1.0" xmlns="http://www.w3.org/2000/svg"
 width="198.000000pt" height="192.000000pt" viewBox="0 0 198.000000 192.000000"
 preserveAspectRatio="xMidYMid meet">
<metadata>
Created by potrace 1.16, written by Peter Selinger 2001-2019
</metadata>
<g transform="translate(0.000000,192.000000) scale(0.100000,-0.100000)"
fill="#000000" stroke="none">
<path d="M735 1691 c-49 -20 -105 -47 -124 -58 -41 -26 -141 -138 -141 -159 0
-11 -7 -13 -27 -8 l-28 7 21 -24 c12 -13 27 -35 34 -48 11 -21 10 -26 -5 -37
-20 -15 -23 -4 39 -149 14 -33 26 -75 26 -93 0 -19 10 -48 23 -65 13 -20 22
-48 23 -73 1 -22 9 -53 17 -70 l16 -29 1 63 c0 74 20 85 37 19 7 -23 24 -53
38 -67 l27 -25 -26 39 c-47 70 -28 139 44 161 34 11 80 9 93 -4 10 -10 0 -14
-75 -26 -44 -7 -71 -41 -42 -52 10 -4 22 0 29 10 16 22 23 21 46 -5 l19 -23
20 24 c17 20 21 21 26 6 5 -12 14 -15 32 -10 22 5 24 4 18 -17 -3 -13 -6 -28
-6 -35 0 -6 -11 -25 -25 -41 -20 -24 -22 -31 -11 -35 16 -6 76 78 76 105 0 9
7 21 16 28 21 18 34 2 64 -75 l23 -61 51 -2 51 -2 -43 20 c-29 13 -47 29 -56
51 -13 31 -12 34 13 60 23 23 28 25 42 13 20 -18 34 -18 49 1 10 12 15 13 21
4 14 -24 -3 -39 -43 -39 -47 0 -49 -23 -1 -28 23 -2 42 7 80 37 28 22 54 37
57 34 12 -12 6 -49 -13 -87 -20 -38 -20 -38 0 -20 10 9 24 34 29 55 18 64 29
54 24 -23 -5 -78 -7 -83 -32 -83 -12 0 -23 -17 -35 -55 -10 -30 -24 -60 -32
-66 -7 -5 -17 -23 -21 -39 -7 -26 -36 -81 -88 -162 -28 -44 -72 -63 -143 -63
-73 1 -118 23 -157 77 -38 53 -86 91 -86 70 0 -8 -10 -21 -23 -30 -12 -8 -45
-44 -72 -80 -45 -59 -59 -70 -132 -103 -46 -20 -83 -40 -83 -45 0 -17 110
-102 180 -138 77 -40 189 -81 222 -81 23 0 23 20 -1 95 -57 176 -83 273 -79
300 l3 30 18 -32 c9 -18 36 -55 60 -82 23 -27 67 -79 97 -116 56 -69 108 -102
139 -89 9 4 35 8 59 9 29 2 51 10 68 26 13 12 40 28 59 35 l35 12 0 -38 c0
-20 -6 -57 -14 -83 l-14 -45 42 14 c59 21 163 80 221 126 95 75 241 268 202
268 -8 0 -21 8 -28 17 -12 15 -12 16 1 8 22 -14 50 -16 50 -5 0 5 -20 21 -45
36 -25 14 -45 32 -45 40 0 7 -18 30 -40 50 -22 20 -37 41 -34 46 3 5 -3 12
-15 15 -12 3 -21 9 -21 14 0 5 -5 9 -11 9 -6 0 -17 7 -25 15 -8 8 -21 12 -29
9 -10 -4 -15 0 -15 14 0 15 -5 19 -20 15 -33 -9 -50 13 -38 50 24 77 29 116
19 136 -11 21 1 70 20 81 5 4 17 41 26 83 14 67 15 82 2 119 -8 24 -13 46 -11
51 1 4 -3 7 -8 7 -6 0 -8 11 -4 26 5 21 3 25 -12 22 -13 -2 -27 13 -51 57 -20
35 -49 70 -69 83 -19 13 -49 43 -66 67 -36 50 -86 73 -179 79 -229 17 -206 18
-304 -23z m327 -305 c18 -2 53 -13 77 -24 25 -12 51 -22 58 -22 18 0 28 -24
48 -125 10 -49 24 -99 32 -110 30 -44 7 -61 -30 -21 -57 61 -176 71 -217 19
-11 -14 -20 -31 -20 -38 0 -7 -19 -15 -41 -19 -44 -7 -79 11 -79 41 0 18 -42
33 -96 33 -48 0 -76 -10 -109 -41 -11 -9 -32 -20 -47 -24 l-26 -7 4 58 c2 31
11 68 19 80 8 12 17 41 21 63 5 29 12 42 28 47 11 3 39 14 61 24 100 45 234
82 267 73 9 -2 31 -5 50 -7z"/>
</g>
</svg>
